<svg xmlns="http://www.w3.org/2000/svg" xmlns:xlink="http://www.w3.org/1999/xlink" width="1222.012" height="1153.729" viewBox="0 0 1222.012 1153.729">
    <defs>
        <linearGradient id="linear-gradient" x1="0.508" y1="0.504" x2="0.887" y2="0.067" gradientUnits="objectBoundingBox">
            <stop offset="0" stop-color="#fcee21" stop-opacity="0"/>
            <stop offset="1" stop-color="#fcee21" stop-opacity="0.502"/>
        </linearGradient>
    </defs>
    <g id="Group_4" data-name="Group 4" transform="translate(0 0)">
        <g id="Group_3" data-name="Group 3">
            <g id="Group_2" data-name="Group 2" transform="translate(0)">
                <path id="Path_30" data-name="Path 30" d="M887.274,5.162c-304.817-38.6-233.412,151.566-591.107,163.691s-364.351,264.5-163.691,412.259S554.817,319.9,824.6,407.807,1192.09,43.761,887.274,5.162Z" transform="translate(386.163 0) rotate(39)" fill="#f3f3f3"/>
                <g id="Web_illustration" data-name="Web illustration" transform="translate(290.088 325.676)">
                    <g id="Layer_1" transform="translate(0 0)">
                        <path id="Path_1" data-name="Path 1" d="M528.558,649.708,493.617,758.061,390.63,662.245,493.5,617.39Z" transform="translate(22.959 -424.123)" fill="url(#linear-gradient)"/>
                        <path id="Path_2" data-name="Path 2" d="M351.133,805.651h79.443a6.023,6.023,0,0,0,6.023-6.023v-2.446a6.023,6.023,0,0,0-6.023-6.023H351.133a6.023,6.023,0,0,0-6.023,6.023v2.446A6.011,6.011,0,0,0,351.133,805.651Z" transform="translate(157.095 -436.885)" fill="#5890ff"/>
                        <g id="Group_1" data-name="Group 1" transform="translate(491.726 145.533)">
                            <path id="Path_3" data-name="Path 3" d="M271.63,589.03,339.9,700.643l-9.4,5.569Z" transform="translate(-169.847 -567.574)" fill="#5890ff"/>
                            <path id="Path_4" data-name="Path 4" d="M360.641,602.84l-19.949-20.607,20.338-15.613a3.63,3.63,0,0,1,4.809.352l10.878,11.239a3.625,3.625,0,0,1,.195,4.818Z" transform="translate(-271.672 -565.873)" fill="#fff" stroke="#000" stroke-miterlimit="10" stroke-width="4"/>
                            <path id="Path_5" data-name="Path 5" d="M347.328,585.937a56.86,56.86,0,0,1,80.194-5.911h0a56.86,56.86,0,0,1,5.911,80.194" transform="translate(-347.328 -565.898)" fill="#5890ff"/>
                            <path id="Path_6" data-name="Path 6" d="M393.74,617.39a23.3,23.3,0,0,0-2.9,8.58A23.583,23.583,0,0,0,428.8,647.624Z" transform="translate(-369.01 -569.656)" fill="#fff" stroke="#000" stroke-miterlimit="10" stroke-width="4"/>
                            <path id="Path_7" data-name="Path 7" d="M427.669,661.668a4.981,4.981,0,0,0,7.311-.852,55.525,55.525,0,0,0-9.108-74.014h0a55.513,55.513,0,0,0-74.551,1.844,4.984,4.984,0,0,0,.232,7.357Z" transform="translate(-347.503 -566.42)" fill="none" stroke="#000" stroke-miterlimit="10" stroke-width="4"/>
                            <path id="Path_8" data-name="Path 8" d="M276.87,591.04l64.7,115.885-7.227,4.281L275.48,594.024Z" transform="translate(-175.087 -567.721)" fill="none" stroke="#000" stroke-miterlimit="10" stroke-width="4"/>
                            <path id="Path_9" data-name="Path 9" d="M272.89,788.636,379.231,709.23l5.2,6.6-108.4,73.8Z" transform="translate(-215.545 -576.401)" fill="rgba(255,255,255,0)" stroke="#000" stroke-linecap="round" stroke-linejoin="round" stroke-miterlimit="10" stroke-width="4"/>
                            <circle id="Ellipse_1" data-name="Ellipse 1" cx="8.96" cy="8.96" r="8.96" transform="translate(153.596 133.385)" fill="none" stroke="#020202" stroke-miterlimit="10" stroke-width="3"/>
                        </g>
                        <path id="Path_10" data-name="Path 10" d="M878.991,715.63v34.709S869.633,730.094,859.2,729.7" transform="translate(-761.633 -431.338)" fill="none" stroke="#000" stroke-linejoin="round" stroke-miterlimit="10" stroke-width="4"/>
                        <path id="Path_11" data-name="Path 11" d="M190.54,756.117h8.608a21.191,21.191,0,0,0,21.19-21.191V612.11a21.191,21.191,0,0,0-21.19-21.19H190.54a21.191,21.191,0,0,0-21.19,21.19V734.917A21.2,21.2,0,0,0,190.54,756.117Z" transform="translate(536.208 -422.179)" fill="#5890ff"/>
                        <path id="Path_12" data-name="Path 12" d="M95.056,820.338h823.3A1.936,1.936,0,0,0,920.3,818.4v-4.864a1.936,1.936,0,0,0-1.936-1.936H95.056a1.936,1.936,0,0,0-1.936,1.936V818.4A1.93,1.93,0,0,0,95.056,820.338Z" transform="translate(-93.12 -438.386)"/>
                        <path id="Path_13" data-name="Path 13" d="M483.82,820.9H739.05V688.208a9.372,9.372,0,0,0-9.367-9.368h-236.5a9.372,9.372,0,0,0-9.367,9.368V820.9Z" transform="translate(-273.88 -428.636)" fill="#fff" stroke="#000" stroke-linecap="round" stroke-linejoin="round" stroke-miterlimit="10" stroke-width="4"/>
                        <path id="Path_14" data-name="Path 14" d="M609.434,723.453h18.791A46.254,46.254,0,0,0,674.479,677.2V586.85H563.18V677.2A46.254,46.254,0,0,0,609.434,723.453Z" transform="translate(-282.84 -421.88)" fill="none" stroke="#000" stroke-miterlimit="10" stroke-width="4"/>
                        <ellipse id="Ellipse_2" data-name="Ellipse 2" cx="25.403" cy="25.403" rx="25.403" ry="25.403" transform="translate(48.846 47.182)" fill="#5890ff"/>
                        <path id="Path_15" data-name="Path 15" d="M553,644.726H546.29V623.86H553a8.672,8.672,0,0,1,8.673,8.673v3.521A8.672,8.672,0,0,1,553,644.726Z" transform="translate(-154.383 -424.598)" fill="none" stroke="#000" stroke-miterlimit="10" stroke-width="4"/>
                        <path id="Path_16" data-name="Path 16" d="M700.305,643.929V617.8h0a13.682,13.682,0,0,0-13.685,13.685v.982C686.62,640.028,692.744,643.929,700.305,643.929Z" transform="translate(-423.041 -424.153)" fill="none" stroke="#000" stroke-miterlimit="10" stroke-width="4"/>
                        <path id="Path_17" data-name="Path 17" d="M606.35,753.864h28.89l-2.353-20.644-24.183.389Z" transform="translate(-283.601 -432.63)" fill="none" stroke="#000" stroke-miterlimit="10" stroke-width="4"/>
                        <path id="Path_18" data-name="Path 18" d="M506.559,936.285H722.8V805.769c0-33.91-31.865-61.409-71.178-61.409H577.728c-39.3,0-71.178,27.491-71.178,61.409V936.285Z" transform="translate(-278.69 -433.448)" fill="#5890ff" stroke="#000" stroke-miterlimit="10" stroke-width="4"/>
                        <path id="Path_19" data-name="Path 19" d="M538.64,557.238l1.445,100.541a41.542,41.542,0,0,0,23.637,36.979,69.322,69.322,0,0,0,30.095,7.07,116.46,116.46,0,0,0,28.723-3.688,38.746,38.746,0,0,0,29.1-36.72c.065-3.187.065-6.412.065-9.757,0-12.342-.538-24.739-1.186-37.146a42.54,42.54,0,0,0-7.162-82.084c-8.617-20.8-27.723-35.274-49.932-35.274-15.14,0-28.835,6.718-38.758,17.6A62.9,62.9,0,0,0,538.64,557.238Z" transform="translate(-265.529 -412.34)" fill="#5890ff"/>
                        <path id="Path_20" data-name="Path 20" d="M533.83,551.218l1.445,100.541a41.543,41.543,0,0,0,23.637,36.979,69.321,69.321,0,0,0,30.095,7.07,116.458,116.458,0,0,0,28.723-3.688,38.746,38.746,0,0,0,29.1-36.72c.065-3.187.065-6.412.065-9.757,0-12.342-.537-24.739-1.186-37.146a42.54,42.54,0,0,0-7.162-82.084c-8.617-20.8-27.723-35.274-49.932-35.274-15.14,0-28.835,6.718-38.758,17.6A62.963,62.963,0,0,0,533.83,551.218Z" transform="translate(-255.278 -414.851)" fill="none" stroke="#000" stroke-miterlimit="10" stroke-width="4"/>
                        <path id="Path_31" data-name="Path 31" d="M70.713,0A70.713,70.713,0,1,1,0,70.713,70.713,70.713,0,0,1,70.713,0Z" transform="translate(4.257)" fill="#fff" stroke="#000" stroke-width="7"/>
                        <path id="Path_22" data-name="Path 22" d="M428.349,940.429h364.88V837.256c0-20.143-32.559-36.476-72.735-36.476H501.075c-40.166,0-72.735,16.328-72.735,36.476V940.429Z" transform="translate(-276.653 -437.591)" fill="#edede2" stroke="#000" stroke-linecap="round" stroke-linejoin="round" stroke-miterlimit="10" stroke-width="4"/>
                        <path id="Path_23" data-name="Path 23" d="M182.38,752.037h8.608a21.191,21.191,0,0,0,21.19-21.19V608.04a21.191,21.191,0,0,0-21.19-21.19H182.38a21.191,21.191,0,0,0-21.19,21.19V730.847A21.191,21.191,0,0,0,182.38,752.037Z" transform="translate(551.928 -421.88)" fill="none" stroke="#000" stroke-linecap="round" stroke-linejoin="round" stroke-miterlimit="10" stroke-width="6"/>
                        <line id="Line_1" data-name="Line 1" y2="107.064" transform="translate(738.608 238.122)" fill="none" stroke="#000" stroke-miterlimit="10" stroke-width="6"/>
                        <path id="Path_24" data-name="Path 24" d="M169.341,807.7H203.67A10.594,10.594,0,0,0,214.26,797.11v-4.3A10.594,10.594,0,0,0,203.67,782.22H169.341a10.594,10.594,0,0,0-10.591,10.591v4.3A10.582,10.582,0,0,0,169.341,807.7Z" transform="translate(552.107 -436.228)" fill="#fff" stroke="#000" stroke-linecap="round" stroke-linejoin="round" stroke-miterlimit="10" stroke-width="6"/>
                        <path id="Path_25" data-name="Path 25" d="M844.959,805.147h30.623a16.786,16.786,0,0,0,16.789-16.789V784.29H828.16v4.068A16.794,16.794,0,0,0,844.959,805.147Z" transform="translate(-746.252 -436.38)" fill="#5890ff"/>
                        <path id="Path_26" data-name="Path 26" d="M841.941,807.489h24.628A19.787,19.787,0,0,0,886.36,787.7V757.826a2.327,2.327,0,0,0-2.326-2.326H824.466a2.327,2.327,0,0,0-2.326,2.326V787.7A19.8,19.8,0,0,0,841.941,807.489Z" transform="translate(-734.663 -434.266)" fill="rgba(0,0,0,0)" stroke="#000" stroke-miterlimit="10" stroke-width="4"/>
                        <path id="Path_27" data-name="Path 27" d="M856.79,755.5" transform="translate(-737.199 -434.266)" fill="none" stroke="#000" stroke-miterlimit="10" stroke-width="4"/>
                        <path id="Path_28" data-name="Path 28" d="M828.63,753.973s8.432-20.783,26.092-19.18" transform="translate(-709.039 -432.739)" fill="none" stroke="#000" stroke-miterlimit="10" stroke-width="4"/>
                        <line id="Line_2" data-name="Line 2" x1="64.016" transform="translate(87.486 352.367)" fill="none" stroke="#000" stroke-miterlimit="10" stroke-width="4"/>
                        <path id="Path_29" data-name="Path 29" d="M339.1,810.461h79.443a6.022,6.022,0,0,0,6.023-6.023v-2.446a6.022,6.022,0,0,0-6.023-6.023H339.1a6.022,6.022,0,0,0-6.023,6.023v2.446A6.017,6.017,0,0,0,339.1,810.461Z" transform="translate(180.272 -437.238)" fill="rgba(255,255,255,0)" stroke="#000" stroke-linecap="round" stroke-linejoin="round" stroke-miterlimit="10" stroke-width="4"/>
                        <circle id="Ellipse_6" data-name="Ellipse 6" cx="22.647" cy="22.647" r="22.647" transform="translate(52.186 52.165)" fill="#5890ff"/>
                        <path id="Path_21" data-name="Path 21" d="M805.44,509.016l25.678,23.291,36.065-36.557" transform="translate(-756.594 -454.109)" fill="none" stroke="#000" stroke-linecap="round" stroke-linejoin="round" stroke-miterlimit="10" stroke-width="6"/>
                    </g>
                </g>
            </g>
        </g>
    </g>
</svg>
